<?xml version="1.0" encoding="UTF-8"?>
<svg id="_레이어_1" data-name="레이어 1" xmlns="http://www.w3.org/2000/svg" viewBox="0 0 86.42 86.42">
  <defs>
    <style>
      .cls-1 {
        fill: #0a7bc2;
      }

      .cls-1, .cls-2, .cls-3 {
        stroke-width: 0px;
      }

      .cls-2 {
        fill: #fff;
      }

      .cls-3 {
        fill: #0a7ac1;
      }
    </style>
  </defs>
  <g id="logo">
    <g>
      <rect class="cls-2" width="86.42" height="86.42"/>
      <g>
        <path class="cls-1" d="M63.88,25.02h-4.66c2.46,2.53,4.92,5.05,7.38,7.58,2.91,2.99,5.83,5.97,8.77,8.93.93.94.88,1.42-.02,2.33-5.75,5.81-11.45,11.67-17.15,17.54h5.36c5.66-5.83,11.33-11.65,17.05-17.43.68-.69.85-1.15.51-1.72-5.75-5.74-11.5-11.48-17.25-17.22Z"/>
        <path class="cls-3" d="M31.25,44.29c-1.34-1.33-1.18-2.01.06-3.25,5.28-5.28,10.48-10.66,15.68-16.02h-5.17c-5.4,5.59-10.83,11.16-16.3,16.68-.89.9-.77,1.37.06,2.21,5.71,5.79,11.5,11.5,16.98,17.51.14,0,.27-.02.42-.02h5.07c-.23-.24-.45-.47-.67-.7-5.36-5.49-10.68-11.02-16.13-16.42Z"/>
        <path class="cls-1" d="M9.89,65.61c2.62-9.93,5.31-19.84,7.97-29.75,1.54-5.74,3.08-11.48,4.58-17.23h-3.82c-4.19,15.66-8.37,31.33-12.59,46.98h3.87Z"/>
      </g>
    </g>
  </g>
</svg>