<?xml version="1.0" encoding="UTF-8"?>
<svg id="_레이어_2" data-name="레이어 2" xmlns="http://www.w3.org/2000/svg" viewBox="0 0 120.53 120">
  <defs>
    <style>
      .cls-1 {
        fill: #00c271;
      }

      .cls-1, .cls-2 {
        stroke-width: 0px;
      }

      .cls-2 {
        fill: #fdfdfd;
      }
    </style>
  </defs>
  <g id="_레이어_1-2" data-name="레이어 1">
    <g>
      <path class="cls-1" d="m119.2,115.65c.05.5.27,2.36-.83,3.48-.63.64-1.67.89-3.35.87-18.53-.31-37.08.04-55.59-.61-25.86-.91-44.7-13.46-54.48-37.36C-4.67,58.52-.11,36.63,17.33,18.13,33.49.98,60.84-4.89,82.12,4.35c12,5.21,21.22,12.5,27.51,21.83,7.18,10.65,8.48,22.24,9.89,32.75.93,6.96,1.06,12.8,1,16.82-1.07,21.46-1.66,36.47-1.32,39.89Z"/>
      <path class="cls-2" d="m107.01,99.3c-13.88-13.6-27.47-26.97-41.15-40.26-1.76-1.7-1.77-3.28-1-5.34,2.66-7.13,5.21-14.3,7.82-21.45,1.08-2.95,1.59-6.03-1.92-7.44-3.79-1.52-5.5,1-6.65,4.34-2.29,6.63-4.83,13.18-7.61,20.68-4.68-4.88-8.86-9.16-12.95-13.53-2.27-2.42-4.93-3.69-7.54-1.14-2.64,2.57-1.33,5.23.99,7.57,9.6,9.68,19.17,19.38,28.67,29.15,1.19,1.22,3.03,2.05,3.32,4.6-7.67,0-15.22.03-22.77-.02-3.19-.02-6.06.43-6.02,4.46.04,3.91,2.78,4.56,6.03,4.55,9.64-.05,19.27.04,28.91-.05,2.49-.02,4.4.54,6.29,2.39,6.22,6.09,12.69,11.94,18.66,18.5-5.44,1.62-10.41,1.11-15.34.99-10.35-.25-20.71.69-31.04-.68-24.84-3.28-42.46-25.11-41.13-49.01,1.47-26.61,22.31-45.6,48.41-45.3,24.84.28,45.33,20.04,46.19,45.12.46,13.44,0,26.91-.04,40.37,0,.72.05,1.45-.11,1.5Z"/>
    </g>
  </g>
</svg>