<?xml version="1.0" encoding="UTF-8"?>
<svg id="_레이어_2" data-name="레이어 2" xmlns="http://www.w3.org/2000/svg" viewBox="0 0 169.85 120">
  <defs>
    <style>
      .cls-1 {
        fill: #fd0000;
      }

      .cls-1, .cls-2 {
        stroke-width: 0px;
      }

      .cls-2 {
        fill: #fdfdfd;
      }
    </style>
  </defs>
  <g id="_레이어_1-2" data-name="레이어 1">
    <g>
      <path class="cls-1" d="m169.85,64.85v.49c-.19.49-.19.97,0,1.46v1.21c-.21.23-.09.51-.12.77.05.31-.11.65.12.93v1.21c-.29.88,0,1.8-.16,2.69-.19,1.28-.04,2.57-.09,3.85-.21,7.8-.66,15.6-2.7,23.15-2.39,8.82-8.25,14.23-17.23,16.15-4.03.86-8.14,1.18-12.24,1.5-4.38.34-8.77.57-13.17.76-4.96.21-9.93.29-14.88.5-4.37.18-8.73-.04-13.08.22-6.71.4-13.42.26-20.12.13-4.36-.08-8.73.04-13.08-.23-2.99-.18-5.98-.04-8.96-.22-3.99-.23-7.99-.27-11.97-.5-5.92-.34-11.84-.69-17.72-1.46-3.82-.49-7.58-1.22-10.98-3.2-5.77-3.36-9.4-8.33-10.77-14.83-1.46-6.96-2.3-14.01-2.33-21.14,0-.61-.18-1.2-.12-1.81-.05-1.44.1-2.89-.08-4.32-.16-.9.13-1.82-.16-2.71v-.97c.21-.23.09-.51.12-.77-.05-.31.11-.65-.12-.93v-1.7c.26-.49.06-1.01.12-1.51,0-.4,0-.8,0-1.2,0-.41,0-.83,0-1.24,0-.85,0-1.71,0-2.56,0-.77,0-1.54,0-2.32-.06-.53.12-1.08-.12-1.6v-1.7c.19-.57.19-1.13,0-1.7v-.97c.29-.89,0-1.81.16-2.71.17-1.59.03-3.19.08-4.78.25-1.72.1-3.46.22-5.2.44-6.2.9-12.43,2.57-18.43C5.54,10.16,11.6,4.78,20.79,2.99c3.53-.69,7.11-.95,10.69-1.27,5.47-.48,10.94-.78,16.43-.99,4.27-.16,8.55-.32,12.82-.47,7.31-.25,14.62-.2,21.94-.22,6.98-.02,13.97-.13,20.95.07,3.19.09,6.38.02,9.56.2,4.19.24,8.39.25,12.58.5,5.47.33,10.96.59,16.41,1.21,3.4.39,6.86.61,10.13,1.72,8,2.71,12.93,8.26,14.88,16.45,1.06,4.44,1.52,8.98,2,13.52.29,2.77.23,5.56.44,8.33.05,1.37-.11,2.75.09,4.12.14,1.13-.13,2.28.15,3.4v.49c-.26.47-.06.97-.12,1.45.06.48-.13.99.12,1.46v.49c-.26.55-.06,1.13-.12,1.7.06.57-.14,1.15.12,1.7v6.31c-.19.57-.19,1.13,0,1.7Z"/>
      <path class="cls-2" d="m112.11,59.92c-3.35,1.94-6.46,3.74-9.57,5.54-11.09,6.41-22.18,12.81-33.27,19.22-1.29.74-1.29.73-1.29-.71,0-16.05,0-32.1,0-48.14v-1.38c14.75,8.52,29.33,16.94,44.13,25.49Z"/>
    </g>
  </g>
</svg>